# xmcd
#
# Track frame offsets:
#	150
#	11170
#	21087
#	30945
#	44655
#	54685
#	63002
#	72412
#	83899
#	96056
#	107613
#	117612
#	129481
#	139252
#	148655
#	159545
#	169944
#	180357
#	190611
#	199889
#	211443
#	218714
#	228591
#	239525
#	249158
#
# Disc length: 3477 seconds
#
# Revision: 0
# Processed by: cddbd v1.5.2PL0 Copyright (c) Steve Scherf et al.
# Submitted via: audiograbber 1.83.01
#
DISCID=670d9319
DTITLE=George Jones - She Thinks I Still Care
DYEAR=1900
DGENRE=Honky Tonk
TTITLE0=You're In My Heart
TTITLE1=Frozen Heart
TTITLE2=I've Got Five Dollars
TTITLE3=Tagging Along 
TTITLE4=Run Boy
TTITLE5=One Woman Man
TTITLE6=There's Nothing I Won't Do
TTITLE7=One Is A Lonely Number
TTITLE8=Heartbroken Me (w/Sonny Burns)
TTITLE9=Giveaway Girl
TTITLE10=All I Want To Do
TTITLE11=Cup Of Loneliness
TTITLE12=Into My Arms Again
TTITLE13=Still Hurtin'
TTITLE14=With Half A Heart
TTITLE15=Time Lock
TTITLE16=Someone Sweet To Love
TTITLE17=New Baby For Christmas
TTITLE18=Vitamins L-O-V-E
TTITLE19=You Better Treat Your Man Right
TTITLE20=Before I Met You
TTITLE21=I Wouldn't Know About That
TTITLE22=Long Time To Forget
TTITLE23=What Am I Worth
TTITLE24=She Thinks I Still Care
EXTD=
EXTT0=
EXTT1=
EXTT2=
EXTT3=
EXTT4=
EXTT5=
EXTT6=
EXTT7=
EXTT8=
EXTT9=
EXTT10=
EXTT11=
EXTT12=
EXTT13=
EXTT14=
EXTT15=
EXTT16=
EXTT17=
EXTT18=
EXTT19=
EXTT20=
EXTT21=
EXTT22=
EXTT23=
EXTT24=
PLAYORDER=
